# xmcd
#
# Track frame offsets:
#	150
#	9648
#	21315
#	33581
#	44039
#	55387
#	66865
#	82390
#	96231
#	110398
#	121137
#	133293
#	144565
#	156934
#	169522
#	182026
#	193271
#	212335
#	227282
#	239372
#	249993
#	259631
#	271191
#	283387
#	292780
#
# Disc length: 4049 seconds
#
# Revision: 0
# Processed by: cddbd v1.5.2PL0 Copyright (c) Steve Scherf et al.
# Submitted via: EZCDAudioConverter 3.1.0.1
#
DISCID=730fcf19
DTITLE=Dolly Parton - Nashville Stories
DYEAR=2015
DGENRE=Country and Folk
TTITLE0=Release Me
TTITLE1=Two Little Orphans
TTITLE2=Little Blossom
TTITLE3=It Wasn't God Who Made Honky Tonk Angles
TTITLE4=Making Believe
TTITLE5=Letter To Heaven
TTITLE6=My Blue Ridge Mountain Boy
TTITLE7=Just Because I Am A Woman
TTITLE8=Mule Skinner Blues
TTITLE9=All I Can Do
TTITLE10=The Bargain Store
TTITLE11=Dumb Blonde
TTITLE12=D.I.V.O.R.C.E
TTITLE13=Jeannie's Afraid Of The Dark
TTITLE14=Mama Say A Prayer
TTITLE15=Apple Jack
TTITLE16=Light Of A Clear Blue Morning
TTITLE17=I Will Alway's Love You
TTITLE18=Higher And Higher
TTITLE19=It's All I Can Do From Falling In Love
TTITLE20=I Don't Know Why I Can Forget You
TTITLE21=Me And Little Andy
TTITLE22=How Does It Feel To Know
TTITLE23=Do I Ever Cross Your Mind
TTITLE24=Jolene
EXTD=
EXTT0=
EXTT1=
EXTT2=
EXTT3=
EXTT4=
EXTT5=
EXTT6=
EXTT7=
EXTT8=
EXTT9=
EXTT10=
EXTT11=
EXTT12=
EXTT13=
EXTT14=
EXTT15=
EXTT16=
EXTT17=
EXTT18=
EXTT19=
EXTT20=
EXTT21=
EXTT22=
EXTT23=
EXTT24=
PLAYORDER=
